<svg width="48" height="48" viewBox="0 0 48 48" fill="none" xmlns="http://www.w3.org/2000/svg">
<path d="M4.8 15C4.8 8.37188 9.0975 3 14.4 3H33.6C38.9025 3 43.2 8.37188 43.2 15V18.15C40.4625 18.8438 38.4 21.8719 38.4 25.5V30H9.6V25.5C9.6 21.8719 7.5375 18.8438 4.8 18.15V15ZM40.8 25.5C40.8 23.5406 41.805 21.8719 43.2 21.2531C43.575 21.0844 43.98 21 44.4 21C46.3875 21 48 23.0156 48 25.5V42C48 43.6594 46.9275 45 45.6 45H43.2C41.8725 45 40.8 43.6594 40.8 42H7.2C7.2 43.6594 6.1275 45 4.8 45H2.4C1.0725 45 0 43.6594 0 42V25.5C0 23.0156 1.6125 21 3.6 21C4.02 21 4.425 21.0938 4.8 21.2531C6.195 21.8719 7.2 23.5406 7.2 25.5V30V33H9.6H38.4H40.8V30V25.5Z" fill="#1B2430"/>
</svg>
