<svg width="48" height="48" viewBox="0 0 48 48" fill="none" xmlns="http://www.w3.org/2000/svg">
<g clip-path="url(#clip0_32_130)">
<path d="M3.6 0C1.6125 0 0 2.01562 0 4.5V34.5C0 36.9844 1.6125 39 3.6 39H4.8C4.8 43.9688 8.025 48 12 48C15.975 48 19.2 43.9688 19.2 39H28.8C28.8 43.9688 32.025 48 36 48C39.975 48 43.2 43.9688 43.2 39H45.6C46.9275 39 48 37.6594 48 36C48 34.3406 46.9275 33 45.6 33V27V24V22.2469C45.6 20.6531 45.0975 19.125 44.1975 18L38.4 10.7531C37.5 9.62812 36.2775 9 35.0025 9H31.2V4.5C31.2 2.01562 29.5875 0 27.6 0H3.6ZM31.2 15H35.0025L40.8 22.2469V24H31.2V15ZM15.6 39C15.6 41.4844 13.9875 43.5 12 43.5C10.0125 43.5 8.4 41.4844 8.4 39C8.4 36.5156 10.0125 34.5 12 34.5C13.9875 34.5 15.6 36.5156 15.6 39ZM36 43.5C34.0125 43.5 32.4 41.4844 32.4 39C32.4 36.5156 34.0125 34.5 36 34.5C37.9875 34.5 39.6 36.5156 39.6 39C39.6 41.4844 37.9875 43.5 36 43.5Z" fill="#1B2430"/>
</g>
<defs>
<clipPath id="clip0_32_130">
<rect width="48" height="48" fill="white"/>
</clipPath>
</defs>
</svg>
